<?xml version="1.0" ?><!DOCTYPE svg  PUBLIC '-//W3C//DTD SVG 1.1//EN'  'http://www.w3.org/Graphics/SVG/1.1/DTD/svg11.dtd'><svg enable-background="new 0 0 500 500" height="500px" id="Layer_1" version="1.1" viewBox="0 0 500 500" width="500px" xml:space="preserve" xmlns="http://www.w3.org/2000/svg" xmlns:xlink="http://www.w3.org/1999/xlink"><path clip-rule="evenodd" d="M113.718,395.366c0,20.078,16.264,36.345,36.342,36.345h281.65  c20.078,0,36.34-16.267,36.34-36.345V186.401c0-20.079-16.262-36.34-36.34-36.34H322.685c-9.99,0-18.172-8.177-18.172-18.172  c0-9.996,8.182-18.17,18.172-18.17H445.34c12.536,0,22.711-10.177,22.711-22.714c0-12.538-10.175-22.715-22.711-22.715H295.427  c-16.992,0-32.348,11.539-36.341,27.259l-18.083,54.512h-37.158c-12.173,0-22.984,4.816-30.802,12.536l-45.967,46.155  c-8.271,8.181-13.358,19.626-13.358,32.163v27.258H77.375v-4.543c0-12.538-10.177-22.715-22.713-22.715  c-12.536,0-22.713,10.177-22.713,22.715v118.112c0,12.535,10.177,22.711,22.713,22.711c12.537,0,22.713-10.176,22.713-22.711v-4.543  h36.343V395.366z M233.648,295.427h168.985c11.084,0,19.99,8.91,19.99,19.99v50.875c0,11.081-8.906,19.992-19.99,19.992H233.648  c-11.086,0-19.991-8.911-19.991-19.992v-50.875C213.658,304.337,222.562,295.427,233.648,295.427z M213.658,218.201  c0-12.537,10.177-22.714,22.713-22.714c12.538,0,22.715,10.177,22.715,22.714c0,12.538-10.177,22.713-22.715,22.713  C223.834,240.914,213.658,230.739,213.658,218.201z" fill="#010101" fill-rule="evenodd"/></svg>