<?xml version="1.0" ?><!DOCTYPE svg  PUBLIC '-//W3C//DTD SVG 1.1//EN'  'http://www.w3.org/Graphics/SVG/1.1/DTD/svg11.dtd'><svg enable-background="new 0 0 500 500" height="500px" id="Layer_1" version="1.1" viewBox="0 0 500 500" width="500px" xml:space="preserve" xmlns="http://www.w3.org/2000/svg" xmlns:xlink="http://www.w3.org/1999/xlink"><path clip-rule="evenodd" d="M90.816,149.432c1.091-7.453,4.541-14.63,10.265-20.354  c14.169-14.167,37.158-14.167,51.328,0l25.713,25.715c7.098,7.087,18.633,7.087,25.713,0l86.222-86.135  c14.172-14.17,37.158-14.17,51.338,0l89.948,89.948c14.171,14.179,14.171,37.168,0,51.337l-86.135,86.222  c-7.088,7.081-7.088,18.624,0,25.716l25.622,25.703c14.26,14.179,14.26,37.165,0,51.338c-5.639,5.719-12.811,9.173-20.262,10.262  l-245.672,31.435c-25.173,0.093-45.614-20.35-45.517-45.515L90.816,149.432z" fill="#010101" fill-rule="evenodd"/></svg>