<?xml version="1.0" ?><!DOCTYPE svg  PUBLIC '-//W3C//DTD SVG 1.1//EN'  'http://www.w3.org/Graphics/SVG/1.1/DTD/svg11.dtd'><svg enable-background="new 0 0 500 500" height="500px" id="Layer_1" version="1.1" viewBox="0 0 500 500" width="500px" xml:space="preserve" xmlns="http://www.w3.org/2000/svg" xmlns:xlink="http://www.w3.org/1999/xlink"><path clip-rule="evenodd" d="M94.277,374.063l-54.785,54.884  c-8.727,8.711-8.727,22.796,0,31.522c8.717,8.724,22.801,8.724,31.524,0l54.788-54.788c78.313,62.511,193.158,57.062,266.11-15.898  c8.731-8.72,15.261-17.893,22.261-27.618l4.089-6.178c3.354-4.994,5.36-11.08,5.36-17.629c0-10.264-4.906-19.438-12.537-25.248  l-4.454-3.275c-9.717-6.913-18.535-12.903-29.165-17.809c25.26-6.638,46.706-20.079,66.777-40.166  c6.726-6.717,12.812-13.708,18.169-21.072l2.731-4.09c2.449-3.627,3.905-8.083,3.905-12.812c0-7.532-3.638-14.17-9.262-18.348  l-5.819-3.993c-14.535-9.547-27.984-15.999-44.701-19.361c4.363-3.452,8.536-7.178,12.537-11.178  c25.714-25.705,39.064-59.056,40.069-92.488c0-1.091-0.367-6.175-0.367-7.533c0-12.536-10.175-22.713-22.711-22.713l-6.904-0.188  c-33.616,0.906-67.145,14.267-92.947,40.07c-3.993,3.993-7.718,8.17-11.173,12.536c-3.45-17.079-10.087-30.619-19.986-45.526  l-3.18-4.443c-4.088-5.901-11.001-9.725-18.718-9.725c-4.455,0-8.628,1.277-12.174,3.548c-1.368,0.815-5.093,3.629-5.636,3.992  c-7,5.182-13.629,10.993-19.985,17.354c-20.079,20.079-33.524,41.338-40.162,66.598c-4.996-10.719-10.993-19.448-17.988-29.252  l-3.088-4.278c-5.817-7.63-15.083-12.624-25.441-12.624c-6.54,0-12.716,2.004-17.81,5.446c-1.268,0.914-4.906,3.55-5.359,3.913  c-9.812,7.09-19.167,13.442-28.072,22.351C37.222,180.996,31.769,295.843,94.277,374.063z" fill="#010101" fill-rule="evenodd"/></svg>