<?xml version="1.0" ?><!DOCTYPE svg  PUBLIC '-//W3C//DTD SVG 1.1//EN'  'http://www.w3.org/Graphics/SVG/1.1/DTD/svg11.dtd'><svg enable-background="new 0 0 500 500" height="500px" id="Layer_1" version="1.1" viewBox="0 0 500 500" width="500px" xml:space="preserve" xmlns="http://www.w3.org/2000/svg" xmlns:xlink="http://www.w3.org/1999/xlink"><path clip-rule="evenodd" d="M311.888,38.477l-80.048,79.954l-34.619-34.527  c-8.713-8.721-22.803-8.721-31.524,0c-8.723,8.723-8.723,22.807,0,31.528l4.906,4.908L131.9,159.134  c-49.969,49.971-60.236,123.655-24.169,182.073l-65.23,65.242c-14.09,14.072-14.09,36.971,0,51.051  c14.08,14.092,36.98,14.092,50.963,0l65.24-65.318c58.603,36.341,132.103,25.979,182.161-24.079l38.702-38.794l5.005,4.998  c8.712,8.72,22.791,8.72,31.516,0c8.73-8.724,8.73-22.812,0-31.525l-39.153-39.166l84.579-84.584c8.731-8.722,8.731-22.807,0-31.529  c-8.719-8.721-22.799-8.721-31.514,0L345.408,232l-82.042-81.951l80.036-80.043c8.731-8.722,8.731-22.808,0-31.529  C334.683,29.754,320.604,29.754,311.888,38.477z" fill="#010101" fill-rule="evenodd"/></svg>