<?xml version="1.0" ?><!DOCTYPE svg  PUBLIC '-//W3C//DTD SVG 1.1//EN'  'http://www.w3.org/Graphics/SVG/1.1/DTD/svg11.dtd'><svg enable-background="new 0 0 500 500" height="500px" id="Layer_1" version="1.1" viewBox="0 0 500 500" width="500px" xml:space="preserve" xmlns="http://www.w3.org/2000/svg" xmlns:xlink="http://www.w3.org/1999/xlink"><path clip-rule="evenodd" d="M48.212,332.496C93.82,443.971,221.11,497.311,332.496,451.789  c111.475-45.614,164.815-172.893,119.293-284.287C406.175,56.027,278.89,2.694,167.502,48.209  C56.024,93.824,2.689,221.11,48.212,332.496z M91.73,314.688l58.33-23.805c11.268,27.621,32.707,47.976,58.147,58.693L183.86,407.63  C143.515,390.734,109.627,358.395,91.73,314.688z M314.778,408.269l-23.896-58.33c27.621-11.269,47.968-32.702,58.693-58.238  l58.055,24.442C390.734,356.487,358.387,390.371,314.778,408.269z M408.269,185.22l-58.33,23.894  c-11.268-27.619-32.702-47.965-58.149-58.69l24.347-58.055C356.488,109.262,390.371,141.612,408.269,185.22z M185.31,91.73  l23.807,58.328c-27.622,11.268-47.972,32.705-58.693,58.24l-58.059-24.434C109.265,143.519,141.612,109.627,185.31,91.73z   M191.672,273.803c-13.177-32.162,2.271-68.957,34.523-82.134c32.16-13.174,68.963,2.274,82.135,34.437  c13.174,32.25-2.274,69.053-34.438,82.219C241.641,321.503,204.842,306.056,191.672,273.803z" fill="#010101" fill-rule="evenodd"/></svg>