<?xml version="1.0" ?><!DOCTYPE svg  PUBLIC '-//W3C//DTD SVG 1.1//EN'  'http://www.w3.org/Graphics/SVG/1.1/DTD/svg11.dtd'><svg enable-background="new 0 0 500 500" height="500px" id="Layer_1" version="1.1" viewBox="0 0 500 500" width="500px" xml:space="preserve" xmlns="http://www.w3.org/2000/svg" xmlns:xlink="http://www.w3.org/1999/xlink"><path clip-rule="evenodd" d="M410.557,149.432c-1.081-7.453-4.543-14.63-10.256-20.354  c-14.179-14.167-37.166-14.167-51.337,0l-25.711,25.715c-7.092,7.087-18.635,7.087-25.715,0l-86.222-86.135  c-14.174-14.17-37.158-14.17-51.333,0l-89.946,89.948c-14.261,14.179-14.261,37.168,0,51.337l86.131,86.222  c7.083,7.081,7.083,18.624,0,25.716l-25.713,25.703c-14.174,14.179-14.174,37.165,0,51.338c5.723,5.719,12.901,9.173,20.354,10.262  l245.579,31.435c25.26,0.093,45.614-20.35,45.614-45.515L410.557,149.432z" fill="#010101" fill-rule="evenodd"/></svg>