<?xml version="1.0" ?><!DOCTYPE svg  PUBLIC '-//W3C//DTD SVG 1.1//EN'  'http://www.w3.org/Graphics/SVG/1.1/DTD/svg11.dtd'><svg enable-background="new 0 0 500 500" height="500px" id="Layer_1" version="1.1" viewBox="0 0 500 500" width="500px" xml:space="preserve" xmlns="http://www.w3.org/2000/svg" xmlns:xlink="http://www.w3.org/1999/xlink"><path clip-rule="evenodd" d="M345.22,42.485c-14-14.08-36.715-14.08-50.796,0L186.49,150.145  l-22.98-22.985l-82.045,82.406c-8.908,8.907-13.176,20.441-13.176,32.348v108.024l0.177,0.175l-25.978,26.086  c-14.08,14.072-14.08,36.787,0,50.787l30.521,30.521c14.002,14.093,36.715,14.093,50.788,0l26.085-25.979l0.177,0.177h108.208  c11.623,0.179,23.44-4.265,32.34-13.175l82.047-82.223l-22.804-22.803l107.662-107.932c14.079-14.086,14.079-36.799,0-50.792  L345.22,42.485z M381.189,173.68l8.731,8.721c7.268,7.271,7.268,18.9,0,26.166l-8.731,8.727c-7.268,7.265-18.898,7.265-26.157,0  l-8.731-8.727c-7.268-7.266-7.268-18.895,0-26.166l8.731-8.721C362.291,166.408,373.922,166.408,381.189,173.68z M317.591,110.081  l8.731,8.723c7.268,7.271,7.268,18.898,0,26.166l-8.731,8.725c-7.268,7.267-18.898,7.267-26.157,0l-8.731-8.725  c-7.264-7.268-7.264-18.895,0-26.166l8.731-8.723C298.692,102.81,310.323,102.81,317.591,110.081z" fill="#010101" fill-rule="evenodd"/></svg>