<?xml version="1.0" ?><!DOCTYPE svg  PUBLIC '-//W3C//DTD SVG 1.1//EN'  'http://www.w3.org/Graphics/SVG/1.1/DTD/svg11.dtd'><svg enable-background="new 0 0 500 500" height="500px" id="Layer_1" version="1.1" viewBox="0 0 500 500" width="500px" xml:space="preserve" xmlns="http://www.w3.org/2000/svg" xmlns:xlink="http://www.w3.org/1999/xlink"><path clip-rule="evenodd" d="M227.787,54.662V69.47C127.482,80.01,47.802,159.145,37.08,258.818  l-0.087,0.268c0,9.991,8.175,18.172,18.258,18.172h172.537v122.651c0,37.613,30.523,68.142,68.14,68.142  c37.62,0,68.143-30.528,68.143-68.142c0-12.536-10.176-22.711-22.717-22.711c-12.535,0-22.711,10.175-22.711,22.711  c0,12.54-10.179,22.715-22.715,22.715s-22.712-10.175-22.712-22.715V277.258H445.66c9.812,0,17.797-7.634,18.26-17.267  c0.088-0.455,0.088-0.905,0.088-1.359c-10.806-99.575-90.49-178.709-190.793-189.162V54.662c0-12.536-10.178-22.713-22.715-22.713  C237.964,31.949,227.787,42.126,227.787,54.662z" fill="#010101" fill-rule="evenodd"/></svg>