<?xml version="1.0" ?><!DOCTYPE svg  PUBLIC '-//W3C//DTD SVG 1.1//EN'  'http://www.w3.org/Graphics/SVG/1.1/DTD/svg11.dtd'><svg enable-background="new 0 0 500 500" height="500px" id="Layer_1" version="1.1" viewBox="0 0 500 500" width="500px" xml:space="preserve" xmlns="http://www.w3.org/2000/svg" xmlns:xlink="http://www.w3.org/1999/xlink"><path clip-rule="evenodd" d="M227.787,348.308v97.032c0,12.536,10.177,22.711,22.713,22.711  c12.537,0,22.715-10.175,22.715-22.711v-97.032c77.049-10.992,136.28-77.228,136.28-157.364  c0-87.855-71.138-158.995-158.995-158.995c-87.856,0-158.995,71.139-158.995,158.995C91.505,271.08,150.742,337.315,227.787,348.308  z M264.129,208.299c8.536-14.267,0.905-28.978-16.171-28.978c-17.63,0-25.805,15.616-25.805,36.608  c0,20.442,18.445,47.15,41.976,47.15c39.791,0,68.142-31.8,68.142-67.592c0-49.419-39.706-86.037-86.313-86.037  c-55.059,0-88.584,42.88-88.584,95.124c0,12.173,0.184,25.438,3.634,43.067c2.635,13.165-11.45,14.444-14.989,5.722  c-6.271-15.269-13.083-39.705-13.083-57.875c0-70.961,47.699-118.111,113.022-118.111c62.506,0,118.112,51.691,118.112,118.111  c0,43.156-31.799,99.94-94.847,99.94c-49.341,0-84.322-31.798-84.322-81.769c0-34.069,23.26-68.14,65.871-68.14  c33.8,0,49.699,31.532,49.699,46.518c0,6.362-1.276,22.35-10.806,30.708C278.571,232.378,257.579,221.288,264.129,208.299z" fill="#010101" fill-rule="evenodd"/></svg>