<?xml version="1.0" ?><!DOCTYPE svg  PUBLIC '-//W3C//DTD SVG 1.1//EN'  'http://www.w3.org/Graphics/SVG/1.1/DTD/svg11.dtd'><svg enable-background="new 0 0 500 500" height="500px" id="Layer_1" version="1.1" viewBox="0 0 500 500" width="500px" xml:space="preserve" xmlns="http://www.w3.org/2000/svg" xmlns:xlink="http://www.w3.org/1999/xlink"><path clip-rule="evenodd" d="M100.588,31.949c-20.079,0-36.34,16.264-36.34,36.34v363.421  c0,20.078,16.262,36.34,36.34,36.34h299.82c20.078,0,36.345-16.262,36.345-36.34v-145.37h-16.354  c-11.08,0-19.991-8.907-19.991-19.987v-50.877c0-11.086,8.911-19.99,19.991-19.99h16.354v-73.41  c0-12.173-4.818-22.985-12.537-30.796L378.06,45.307c-8.181-8.271-19.628-13.358-32.164-13.358H100.588z M146.017,95.548v81.769  c0,9.994-8.181,18.17-18.172,18.17c-9.99,0-18.17-8.176-18.17-18.17V95.548c0-9.996,8.181-18.173,18.17-18.173  C137.836,77.375,146.017,85.552,146.017,95.548z M227.786,95.548v81.769c0,9.994-8.181,18.17-18.17,18.17  c-9.992,0-18.172-8.176-18.172-18.17V95.548c0-9.996,8.181-18.173,18.172-18.173C219.605,77.375,227.786,85.552,227.786,95.548z   M309.555,95.548v81.769c0,9.994-8.181,18.17-18.172,18.17c-9.988,0-18.168-8.176-18.168-18.17V95.548  c0-9.996,8.18-18.173,18.168-18.173C301.374,77.375,309.555,85.552,309.555,95.548z M129.664,322.685h214.413  c11.085,0,19.992,8.907,19.992,19.987v59.962c0,11.084-8.907,19.99-19.992,19.99H129.664c-11.081,0-19.989-8.906-19.989-19.99  v-59.962C109.674,331.592,118.583,322.685,129.664,322.685z" fill="#010101" fill-rule="evenodd"/></svg>