<?xml version="1.0" ?><!DOCTYPE svg  PUBLIC '-//W3C//DTD SVG 1.1//EN'  'http://www.w3.org/Graphics/SVG/1.1/DTD/svg11.dtd'><svg enable-background="new 0 0 500 500" height="500px" id="Layer_1" version="1.1" viewBox="0 0 500 500" width="500px" xml:space="preserve" xmlns="http://www.w3.org/2000/svg" xmlns:xlink="http://www.w3.org/1999/xlink"><path clip-rule="evenodd" d="M90.816,349.186c1.091,7.451,4.543,14.638,10.265,20.362  c14.174,14.168,37.158,14.168,51.332,0l25.712-25.715c7.09-7.087,18.629-7.087,25.713,0l86.218,86.127  c14.18,14.267,37.158,14.267,51.338,0l89.948-89.94c14.171-14.18,14.171-37.166,0-51.338l-86.135-86.222  c-7.088-7.089-7.088-18.623,0-25.712l25.626-25.713c14.269-14.17,14.269-37.158,0-51.328c-5.643-5.722-12.814-9.173-20.266-10.265  L104.896,57.998c-25.166,0-45.61,20.354-45.516,45.614L90.816,349.186z" fill="#010101" fill-rule="evenodd"/></svg>