<?xml version="1.0" ?><!DOCTYPE svg  PUBLIC '-//W3C//DTD SVG 1.1//EN'  'http://www.w3.org/Graphics/SVG/1.1/DTD/svg11.dtd'><svg enable-background="new 0 0 500 500" height="500px" id="Layer_1" version="1.1" viewBox="0 0 500 500" width="500px" xml:space="preserve" xmlns="http://www.w3.org/2000/svg" xmlns:xlink="http://www.w3.org/1999/xlink"><path clip-rule="evenodd" d="M431.781,195.487h27.166c2.362,0,4.72-0.905,6.538-2.634  c3.542-3.54,3.542-9.357,0-12.901c-2.457-2.361-32.891-38.977-32.891-38.977s30.434-36.618,32.891-38.977  c3.542-3.54,3.542-9.357,0-12.901c-1.818-1.725-4.176-2.635-6.538-2.635H415.24c-19.892-32.705-55.964-54.512-97.028-54.512  c-62.692,0-113.569,50.879-113.569,113.568c0,37.615-30.529,68.14-68.14,68.14h-0.275H50.013c-10,0-18.172,8.181-18.172,18.172  l0.089,2.453c8.083,79.041,63.412,144.459,136.372,168.901v42.156c0,12.536,10.177,22.711,22.713,22.711  s22.713-10.175,22.713-22.711v-32.62c5.997,0.544,12.083,0.818,18.17,0.818c6.086,0,12.173-0.274,18.172-0.818v32.62  c0,12.536,10.175,22.711,22.715,22.711c12.536,0,22.711-10.175,22.711-22.711v-42.156  c79.223-26.536,136.284-101.396,136.284-189.526V195.487z M322.757,109.175c0-12.536,10.174-22.714,22.711-22.714  c12.536,0,22.715,10.178,22.715,22.714s-10.179,22.713-22.715,22.713C332.931,131.889,322.757,121.711,322.757,109.175z   M252.253,243.275c12.812,27.805,7.81,61.789-15.083,84.679c-22.535,22.623-55.968,27.809-83.5,15.536l-2.91-1.544  c-5.812-3.088-9.714-9.175-9.714-16.174c0-5.36,2.27-10.179,5.909-13.541c1.809-1.632,75.132-75.043,75.132-75.043  c7.177-7.177,18.81-7.177,25.89,0c1.09,1.091,2.094,2.271,2.822,3.544L252.253,243.275z" fill="#010101" fill-rule="evenodd"/></svg>