<?xml version="1.0" ?><!DOCTYPE svg  PUBLIC '-//W3C//DTD SVG 1.1//EN'  'http://www.w3.org/Graphics/SVG/1.1/DTD/svg11.dtd'><svg enable-background="new 0 0 500 500" height="500px" id="Layer_1" version="1.1" viewBox="0 0 500 500" width="500px" xml:space="preserve" xmlns="http://www.w3.org/2000/svg" xmlns:xlink="http://www.w3.org/1999/xlink"><path clip-rule="evenodd" d="M255.761,439.058c37.246,37.342,97.578,37.342,134.824,0  c23.178-23.166,31.978-55.242,26.265-85.221c9.813-4.998,18.615-10.817,25.979-16.267c0.818-0.638,4.456-3.174,5.361-3.9  c4.088-3.363,6.724-8.448,6.724-14.18c0-5.448-2.361-10.354-6.174-13.629l-74.958-61.778c-3.088-2.542-7.089-4.09-11.443-4.09  c-4.918,0-9.37,1.907-12.637,5c-1.276,1.272-12.535,12.805-12.535,12.805c-7.818,7.818-20.442,7.818-28.26,0l-76.499-76.585  c-7.814-7.814-7.814-20.532,0-28.347l12.448-12.449c3.273-3.271,5.181-7.814,5.181-12.716c0-4.906-1.908-9.271-5-12.541  l-64.233-77.591c-3.362-3.997-8.452-6.631-14.085-6.631c-5.993,0-11.264,2.91-14.626,7.359l-1.091,1.45  c-13.992,18.9-32.252,48.885-32.252,77.051c0,77.589,172.989,250.301,249.851,250.301c1.456,0,2.912-0.088,4.275-0.088  c1.361,14.269-3.458,28.979-14.355,39.982c-19.535,19.528-51.157,19.528-70.693,0L162.359,278.064  c-26.618-26.623-69.686-26.623-96.304,0c-26.622,26.616-26.622,69.686,0,96.302l41.157,40.612c8.902,8.818,23.257,8.818,32.163,0  c8.814-8.903,8.814-23.258,0-32.157l-41.249-40.527c-8.815-8.899-8.815-23.255,0-32.157c8.902-8.818,23.259-8.818,32.162,0  L255.761,439.058z" fill="#010101" fill-rule="evenodd"/></svg>