<?xml version="1.0" ?><!DOCTYPE svg  PUBLIC '-//W3C//DTD SVG 1.1//EN'  'http://www.w3.org/Graphics/SVG/1.1/DTD/svg11.dtd'><svg enable-background="new 0 0 500 500" height="500px" id="Layer_1" version="1.1" viewBox="0 0 500 500" width="500px" xml:space="preserve" xmlns="http://www.w3.org/2000/svg" xmlns:xlink="http://www.w3.org/1999/xlink"><path clip-rule="evenodd" d="M73.333,285.841c0,97.85,79.316,177.168,177.167,177.168  c97.846,0,177.168-79.318,177.168-177.168c0-79.497-52.332-146.731-124.475-169.172l-0.087-0.087  c-6.913-2.635-11.723-9.272-11.723-16.992c0-9.99,8.18-18.17,18.172-18.17h4.543c12.537,0,22.716-10.178,22.716-22.714  c0-12.538-10.179-22.715-22.716-22.715H186.901c-12.536,0-22.713,10.177-22.713,22.715c0,12.536,10.177,22.714,22.713,22.714h4.543  c9.996,0,18.173,8.18,18.173,18.17c0,7.906-5.09,14.632-12.086,17.177c-16.716,5.173-32.344,12.804-46.607,22.44l-16.717-16.727  c-6.272-6.264-16.626-6.264-22.898,0L87.143,146.66c-6.268,6.264-6.268,16.619,0,22.891l16.717,16.716  C84.601,214.702,73.333,248.95,73.333,285.841z M227.787,176.815c0-12.536,10.177-22.713,22.713-22.713  c12.537,0,22.715,10.177,22.715,22.713c0,12.539-10.178,22.716-22.715,22.716C237.964,199.531,227.787,189.354,227.787,176.815z   M118.761,285.841c0-12.535,10.177-22.711,22.713-22.711s22.713,10.176,22.713,22.711c0,12.537-10.177,22.716-22.713,22.716  S118.761,298.378,118.761,285.841z M336.814,285.841c0-12.535,10.175-22.711,22.712-22.711c12.535,0,22.715,10.176,22.715,22.711  c0,12.537-10.18,22.716-22.715,22.716C346.989,308.557,336.814,298.378,336.814,285.841z M227.787,394.867  c0-12.537,10.177-22.712,22.713-22.712c12.537,0,22.715,10.175,22.715,22.712c0,12.539-10.178,22.715-22.715,22.715  C237.964,417.582,227.787,407.406,227.787,394.867z M340.715,220.611l-73.678,73.687c-6.9,6.896-18.081,6.896-24.989,0  c-6.902-6.913-6.902-18.089,0-24.985l73.683-73.686c6.904-6.903,18.084-6.903,24.984,0  C347.62,202.529,347.62,213.709,340.715,220.611z" fill="#010101" fill-rule="evenodd"/></svg>