<?xml version="1.0" ?><!DOCTYPE svg  PUBLIC '-//W3C//DTD SVG 1.1//EN'  'http://www.w3.org/Graphics/SVG/1.1/DTD/svg11.dtd'><svg enable-background="new 0 0 500 500" height="500px" id="Layer_1" version="1.1" viewBox="0 0 500 500" width="500px" xml:space="preserve" xmlns="http://www.w3.org/2000/svg" xmlns:xlink="http://www.w3.org/1999/xlink"><path clip-rule="evenodd" d="M368.112,362.843c8.447,3.362,17.621,5.27,27.254,5.27  c40.157,0,72.685-32.528,72.685-72.686V159.145c0-40.155-32.527-72.683-72.685-72.683c-9.633,0-18.807,1.907-27.254,5.27V68.29  c0-20.077-16.267-36.34-36.341-36.34H68.29c-20.077,0-36.34,16.264-36.34,36.34V375.83c0,50.975,41.249,92.221,92.221,92.221H275.89  c50.971,0,92.223-41.246,92.223-92.221V362.843z M113.718,95.548v263.478c0,9.99-8.181,18.172-18.17,18.172  c-9.992,0-18.173-8.182-18.173-18.172V95.548c0-9.992,8.181-18.173,18.173-18.173C105.537,77.375,113.718,85.557,113.718,95.548z   M422.624,295.427c0,15.085-12.173,27.258-27.258,27.258c-15.082,0-27.254-12.173-27.254-27.258V159.145  c0-15.083,12.172-27.256,27.254-27.256c15.085,0,27.258,12.173,27.258,27.256V295.427z" fill="#010101" fill-rule="evenodd"/></svg>