<?xml version="1.0" ?><!DOCTYPE svg  PUBLIC '-//W3C//DTD SVG 1.1//EN'  'http://www.w3.org/Graphics/SVG/1.1/DTD/svg11.dtd'><svg enable-background="new 0 0 500 500" height="500px" id="Layer_1" version="1.1" viewBox="0 0 500 500" width="500px" xml:space="preserve" xmlns="http://www.w3.org/2000/svg" xmlns:xlink="http://www.w3.org/1999/xlink"><path clip-rule="evenodd" d="M91.505,181.858c0,80.14,59.231,146.371,136.282,157.364v65.23  c0,9.992-8.181,18.172-18.17,18.172h-49.972c-12.536,0-22.713,10.175-22.713,22.716c0,12.536,10.177,22.711,22.713,22.711h181.708  c12.541,0,22.717-10.175,22.717-22.711c0-12.541-10.176-22.716-22.717-22.716h-49.969c-9.988,0-18.169-8.18-18.169-18.172v-65.23  c77.049-10.993,136.28-77.224,136.28-157.364V68.29c0-20.077-16.262-36.34-36.34-36.34h-245.31c-20.079,0-36.34,16.264-36.34,36.34  V181.858z M156.92,77.375h187.157c11.085,0,19.992,8.909,19.992,19.991v50.875c0,11.081-8.907,19.989-19.992,19.989H156.92  c-11.08,0-19.989-8.909-19.989-19.989V97.367C136.932,86.284,145.84,77.375,156.92,77.375z" fill="#010101" fill-rule="evenodd"/></svg>