<?xml version="1.0" ?><!DOCTYPE svg  PUBLIC '-//W3C//DTD SVG 1.1//EN'  'http://www.w3.org/Graphics/SVG/1.1/DTD/svg11.dtd'><svg enable-background="new 0 0 500 500" height="500px" id="Layer_1" version="1.1" viewBox="0 0 500 500" width="500px" xml:space="preserve" xmlns="http://www.w3.org/2000/svg" xmlns:xlink="http://www.w3.org/1999/xlink"><path clip-rule="evenodd" d="M36.992,249.5c0,117.932,95.578,213.508,213.508,213.508  c117.932,0,213.508-95.576,213.508-213.508c0-117.934-95.576-213.51-213.508-213.51C132.57,35.991,36.992,131.566,36.992,249.5z   M227.787,104.133c0-12.536,10.177-22.713,22.713-22.713c12.537,0,22.715,10.177,22.715,22.713s-10.178,22.713-22.715,22.713  C237.964,126.846,227.787,116.669,227.787,104.133z M82.418,249.5c0-12.536,10.177-22.713,22.714-22.713  c12.536,0,22.713,10.177,22.713,22.713c0,12.537-10.177,22.715-22.713,22.715C92.596,272.216,82.418,262.037,82.418,249.5z   M373.155,249.5c0-12.536,10.175-22.713,22.711-22.713c12.54,0,22.715,10.177,22.715,22.713c0,12.537-10.175,22.715-22.715,22.715  C383.33,272.216,373.155,262.037,373.155,249.5z M227.787,394.867c0-12.537,10.177-22.712,22.713-22.712  c12.537,0,22.715,10.175,22.715,22.712c0,12.539-10.178,22.715-22.715,22.715C237.964,417.582,227.787,407.406,227.787,394.867z   M217.157,260.306c-4.819-4.718-65.958-66.951-65.958-66.951c-6.908-6.903-6.908-18.083,0-24.985c6.902-6.902,18.077-6.902,24.985,0  l59.961,60.139c5.358,5.269,14.173,5.269,19.449,0l87.395-87.396c6.9-6.902,18.08-6.902,24.985,0c6.9,6.902,6.9,18.083,0,24.985  c0,0-88.672,89.764-93.394,94.495c-7.363,7.168-17.53,11.623-28.623,11.623C234.689,272.216,224.516,267.673,217.157,260.306z" fill="#010101" fill-rule="evenodd"/></svg>