<?xml version="1.0" ?><!DOCTYPE svg  PUBLIC '-//W3C//DTD SVG 1.1//EN'  'http://www.w3.org/Graphics/SVG/1.1/DTD/svg11.dtd'><svg enable-background="new 0 0 500 500" height="500px" id="Layer_1" version="1.1" viewBox="0 0 500 500" width="500px" xml:space="preserve" xmlns="http://www.w3.org/2000/svg" xmlns:xlink="http://www.w3.org/1999/xlink"><path clip-rule="evenodd" d="M173.274,249.5c0,12.537,10.177,22.715,22.713,22.715  c12.537,0,22.714-10.179,22.714-22.715c0-12.536-10.177-22.713-22.714-22.713C183.451,226.788,173.274,236.964,173.274,249.5z   M282.298,249.5c0,12.537,10.179,22.715,22.715,22.715s22.715-10.179,22.715-22.715c0-12.536-10.179-22.713-22.715-22.713  S282.298,236.964,282.298,249.5z M36.992,426.668c0,20.079,16.262,36.341,36.34,36.341h354.335c20.078,0,36.34-16.262,36.34-36.341  V72.333c0-20.078-16.262-36.342-36.34-36.342H73.333c-20.079,0-36.34,16.264-36.34,36.342V426.668z M127.845,249.5  c0-67.777,54.878-122.654,122.655-122.654c67.779,0,122.655,54.877,122.655,122.654c0,67.78-54.876,122.655-122.655,122.655  C182.723,372.155,127.845,317.28,127.845,249.5z" fill="#010101" fill-rule="evenodd"/></svg>