<?xml version="1.0" ?><!DOCTYPE svg  PUBLIC '-//W3C//DTD SVG 1.1//EN'  'http://www.w3.org/Graphics/SVG/1.1/DTD/svg11.dtd'><svg enable-background="new 0 0 500 500" height="500px" id="Layer_1" version="1.1" viewBox="0 0 500 500" width="500px" xml:space="preserve" xmlns="http://www.w3.org/2000/svg" xmlns:xlink="http://www.w3.org/1999/xlink"><path clip-rule="evenodd" d="M91.505,431.711c0,20.078,16.262,36.34,36.34,36.34h245.31  c20.078,0,36.34-16.262,36.34-36.34V68.29c0-20.077-16.262-36.34-36.34-36.34h-245.31c-20.079,0-36.34,16.264-36.34,36.34V431.711z   M156.92,77.375h187.157c11.085,0,19.992,8.905,19.992,19.991v223.5c0,11.081-8.907,19.986-19.992,19.986H156.92  c-11.08,0-19.989-8.905-19.989-19.986v-223.5C136.932,86.28,145.84,77.375,156.92,77.375z M227.787,399.909  c0-12.536,10.177-22.711,22.713-22.711c12.537,0,22.715,10.175,22.715,22.711c0,12.54-10.178,22.715-22.715,22.715  C237.964,422.624,227.787,412.449,227.787,399.909z" fill="#010101" fill-rule="evenodd"/></svg>