<?xml version="1.0" ?><!DOCTYPE svg  PUBLIC '-//W3C//DTD SVG 1.1//EN'  'http://www.w3.org/Graphics/SVG/1.1/DTD/svg11.dtd'><svg enable-background="new 0 0 500 500" height="500px" id="Layer_1" version="1.1" viewBox="0 0 500 500" width="500px" xml:space="preserve" xmlns="http://www.w3.org/2000/svg" xmlns:xlink="http://www.w3.org/1999/xlink"><path clip-rule="evenodd" d="M113.718,31.949c-20.079,0-36.343,16.264-36.343,36.34v363.421  c0,20.078,16.264,36.34,36.343,36.34h272.566c20.079,0,36.34-16.262,36.34-36.34V158.417c0-12.173-4.81-22.982-12.536-30.796  l-82.497-82.319c-8.173-8.265-19.628-13.352-32.164-13.352H113.718z M240.914,95.548c0-9.996,8.177-18.173,18.172-18.173  c9.991,0,18.172,8.177,18.172,18.173v68.14c0,7.542,6.087,13.629,13.626,13.629h68.143c9.99,0,18.172,8.175,18.172,18.17  c0,9.996-8.182,18.171-18.172,18.171h-81.769c-20.079,0-36.344-16.264-36.344-36.341V95.548z" fill="#010101" fill-rule="evenodd"/></svg>