<?xml version="1.0" ?><!DOCTYPE svg  PUBLIC '-//W3C//DTD SVG 1.1//EN'  'http://www.w3.org/Graphics/SVG/1.1/DTD/svg11.dtd'><svg enable-background="new 0 0 500 500" height="500px" id="Layer_1" version="1.1" viewBox="0 0 500 500" width="500px" xml:space="preserve" xmlns="http://www.w3.org/2000/svg" xmlns:xlink="http://www.w3.org/1999/xlink"><path clip-rule="evenodd" d="M113.718,468.051h218.053c12.536,0,23.991-5.094,32.16-13.354  l46.156-45.966c7.727-7.825,12.536-18.635,12.536-30.808V68.29c0-20.077-16.261-36.34-36.34-36.34H113.718  c-20.079,0-36.343,16.264-36.343,36.34v363.421C77.375,451.789,93.639,468.051,113.718,468.051z M142.793,77.375h214.413  c11.081,0,19.992,8.905,19.992,19.991v96.302c0,11.086-8.911,19.989-19.992,19.989H142.793c-11.086,0-19.991-8.903-19.991-19.989  V97.367C122.802,86.28,131.707,77.375,142.793,77.375z M195.487,287.246v26.353h26.348c10.54,0,19.08,8.182,19.08,18.173  c0,9.987-8.54,18.167-19.08,18.167h-26.348v26.354c0,10.542-8.176,19.074-18.17,19.074c-9.996,0-18.172-8.532-18.172-19.074v-26.354  h-26.347c-10.54,0-19.08-8.18-19.08-18.167c0-9.991,8.54-18.173,19.08-18.173h26.347v-26.353c0-10.538,8.177-19.074,18.172-19.074  C187.311,268.172,195.487,276.708,195.487,287.246z M331.771,299.97c0-12.536,10.175-22.712,22.711-22.712  s22.716,10.176,22.716,22.712s-10.18,22.715-22.716,22.715S331.771,312.506,331.771,299.97z M286.341,354.482  c0-12.536,10.179-22.711,22.715-22.711s22.716,10.175,22.716,22.711s-10.18,22.716-22.716,22.716S286.341,367.019,286.341,354.482z" fill="#010101" fill-rule="evenodd"/></svg>