<?xml version="1.0" ?><!DOCTYPE svg  PUBLIC '-//W3C//DTD SVG 1.1//EN'  'http://www.w3.org/Graphics/SVG/1.1/DTD/svg11.dtd'><svg enable-background="new 0 0 500 500" height="500px" id="Layer_1" version="1.1" viewBox="0 0 500 500" width="500px" xml:space="preserve" xmlns="http://www.w3.org/2000/svg" xmlns:xlink="http://www.w3.org/1999/xlink"><path clip-rule="evenodd" d="M415.762,346.214c-10.63-13.896-22.528-25.072-36.796-33.883  c-22.077,48.968-71.316,83.035-128.466,83.035c-57.147,0-106.391-34.067-128.474-83.035c-14.17,8.811-26.158,19.986-36.786,33.883  c-7.542,9.812-11.64,29.527-11.908,40.07c0.09,2.725,0,45.427,0,45.427c0,20.078,16.264,36.34,36.343,36.34h281.648  c20.078,0,36.345-16.262,36.345-36.34c0,0-0.089-42.702,0-45.427C427.393,375.741,423.3,356.025,415.762,346.214z M201.161,288.614  c-7.623,0.817-14.898,1.818-21.8,2.999c-7.905,1.994-13.904,9.175-13.904,17.717c0,3.539,1.003,6.718,2.724,9.538  c19.086,24.434,48.879,40.158,82.32,40.158c32.614,0,61.692-14.898,80.866-38.252c2.536-3.087,3.992-7.088,3.992-11.444  c0-8.905-6.449-16.352-14.998-17.896c-7.079-1.276-14.529-2.37-22.527-3.184c-10.263-1.91-17.985-9.174-17.985-20.079  c0-9.991,7.448-17.622,17.447-18.9c0.992-0.178,3.354-0.265,3.354-0.265c48.886-3.46,82.143-13.362,104.028-32.26  c3-3.177,4.818-7.455,4.818-12.173c0-9.449-7.175-17.169-16.35-18.083c-26.983-5.449-47.25-27.799-47.25-54.603v-3.815  c0-53.057-42.702-96.124-95.396-96.124c-52.694,0-95.398,43.067-95.398,96.124v3.815c0,26.803-20.264,49.154-47.246,54.603  c-9.174,0.913-16.351,8.633-16.351,18.083c0,4.718,1.819,8.996,4.808,12.173c21.996,18.898,55.241,28.8,104.217,32.26  c1.454,0,2.82,0.087,4.09,0.265c10.167,1.456,16.529,8.722,16.529,18.9C221.149,279.803,212.437,287.246,201.161,288.614z" fill="#010101" fill-rule="evenodd"/></svg>