<?xml version="1.0" ?><!DOCTYPE svg  PUBLIC '-//W3C//DTD SVG 1.1//EN'  'http://www.w3.org/Graphics/SVG/1.1/DTD/svg11.dtd'><svg enable-background="new 0 0 500 500" height="500px" id="Layer_1" version="1.1" viewBox="0 0 500 500" width="500px" xml:space="preserve" xmlns="http://www.w3.org/2000/svg" xmlns:xlink="http://www.w3.org/1999/xlink"><path clip-rule="evenodd" d="M322.685,250c0,15.085,12.174,27.258,27.254,27.258  c15.086,0,27.26-12.173,27.26-27.258c0-15.083-12.174-27.256-27.26-27.256C334.858,222.744,322.685,234.917,322.685,250z   M122.802,250c0,15.085,12.173,27.258,27.258,27.258c15.083,0,27.256-12.173,27.256-27.258c0-15.083-12.173-27.256-27.256-27.256  C134.976,222.744,122.802,234.917,122.802,250z M289.432,231.83H210.57c1.997,5.722,3.087,11.809,3.087,18.17  c0,6.361-1.091,12.448-3.087,18.172h78.861c-1.998-5.724-3.091-11.811-3.091-18.172C286.341,243.638,287.434,237.552,289.432,231.83  z M31.949,377.198c0,20.078,16.264,36.34,36.34,36.34h363.421c20.078,0,36.34-16.262,36.34-36.34V122.802  c0-20.077-16.262-36.341-36.34-36.341H68.29c-20.077,0-36.34,16.264-36.34,36.341V377.198z M150.061,313.599  c-35.164,0-63.599-28.435-63.599-63.599c0-35.162,28.436-63.599,63.599-63.599h199.878c35.165,0,63.6,28.438,63.6,63.599  c0,35.164-28.435,63.599-63.6,63.599H150.061z" fill="#010101" fill-rule="evenodd"/></svg>