<?xml version="1.0" ?><!DOCTYPE svg  PUBLIC '-//W3C//DTD SVG 1.1//EN'  'http://www.w3.org/Graphics/SVG/1.1/DTD/svg11.dtd'><svg enable-background="new 0 0 500 500" height="500px" id="Layer_1" version="1.1" viewBox="0 0 500 500" width="500px" xml:space="preserve" xmlns="http://www.w3.org/2000/svg" xmlns:xlink="http://www.w3.org/1999/xlink"><path clip-rule="evenodd" d="M271.493,183.86l-27.717,27.526L132.752,100.364  c-3.272-3.273-7.722-5.269-12.717-5.269c-8.087,0-14.989,5.358-17.261,12.624l-1.003,3.275  c-6.633,20.895-10.265,43.155-10.265,66.323c0,54.06,19.62,103.488,52.151,141.551l-3.457,4.543  c-15.988,15.899-25.162,36.069-27.434,56.873c-30.619,8.002-54.969,30.718-64.6,59.963c0,0-2.09,5.543-2.09,9.632  c0,9.991,8.358,18.172,18.623,18.172h144.463c10.267,0,18.625-8.181,18.625-18.172c0-5.72-2.543-10.901-2.543-10.901  c-10.177-29.344-35.162-51.88-66.327-59.235c2.002-8.906,6.452-17.354,13.358-24.267l4.181-5.448  c36.793,28.447,82.951,45.339,133.101,45.339c22.803,0,44.789-3.45,65.418-9.987c1.001-0.275,4.63-1.819,4.63-1.819  c6.913-2.549,11.898-9.186,11.898-16.991c0-5.094-2.086-9.725-5.536-12.991l-2.819-2.732l-107.75-107.841l27.61-27.62  c8.73-8.723,8.73-22.803,0-31.524C294.296,175.133,280.208,175.133,271.493,183.86z M336.815,200.03  c0,12.537,10.175,22.713,22.711,22.713s22.716-10.177,22.716-22.713l-0.093-4.543c-1.088-22.894-10.362-45.426-27.892-62.871  c-17.442-17.536-39.983-26.803-62.874-27.895l-4.543-0.089c-12.535,0-22.711,10.177-22.711,22.713  c0,12.539,10.176,22.715,22.711,22.715c1.544,0,4.543,0.182,4.543,0.182c11.269,1.091,22.165,5.815,30.809,14.445  c8.623,8.631,13.342,19.533,14.355,30.8C336.548,195.487,336.815,198.487,336.815,200.03z M409.496,200.03  c0,12.537,10.179,22.713,22.715,22.713c12.537,0,22.712-10.177,22.712-22.713l-0.089-4.543  c-1.088-41.52-17.441-82.678-49.15-114.296c-31.622-31.706-72.773-48.063-114.3-49.154l-4.543-0.087  c-12.535,0-22.711,10.177-22.711,22.713c0,12.537,10.176,22.713,22.711,22.713l4.543,0.09c29.892,1.091,59.419,13.086,82.223,35.8  c22.715,22.803,34.709,52.331,35.802,82.221L409.496,200.03z" fill="#010101" fill-rule="evenodd"/></svg>