<?xml version="1.0" ?><!DOCTYPE svg  PUBLIC '-//W3C//DTD SVG 1.1//EN'  'http://www.w3.org/Graphics/SVG/1.1/DTD/svg11.dtd'><svg enable-background="new 0 0 500 500" height="500px" id="Layer_1" version="1.1" viewBox="0 0 500 500" width="500px" xml:space="preserve" xmlns="http://www.w3.org/2000/svg" xmlns:xlink="http://www.w3.org/1999/xlink"><path clip-rule="evenodd" d="M54.651,250.532c-18.078,8.451-25.89,29.889-17.438,47.969  c8.446,18.081,29.887,25.803,47.876,17.442l81.681-38.063v108.388c0,9.991-8.177,18.172-18.172,18.172h-49.97  c-12.537,0-22.713,10.175-22.713,22.715c0,12.537,10.177,22.712,22.713,22.712h181.71c12.537,0,22.712-10.175,22.712-22.712  c0-12.54-10.175-22.715-22.712-22.715h-49.969c-9.996,0-18.172-8.181-18.172-18.172V256.712l30.708-14.357  c28.26,25.892,70.687,33.797,107.845,16.806l59.606-27.165c48.693-22.257,69.773-79.041,47.062-126.833  c-22.716-47.698-80.591-68.323-129.38-46.061l-59.606,27.163c-36.791,16.897-57.873,53.332-56.146,90.766L54.651,250.532z   M357.566,118.247c0-12.537,10.175-22.713,22.712-22.713c12.535,0,22.715,10.177,22.715,22.713c0,12.536-10.18,22.713-22.715,22.713  C367.741,140.959,357.566,130.783,357.566,118.247z" fill="#010101" fill-rule="evenodd"/></svg>