<?xml version="1.0" ?><!DOCTYPE svg  PUBLIC '-//W3C//DTD SVG 1.1//EN'  'http://www.w3.org/Graphics/SVG/1.1/DTD/svg11.dtd'><svg enable-background="new 0 0 500 500" height="500px" id="Layer_1" version="1.1" viewBox="0 0 500 500" width="500px" xml:space="preserve" xmlns="http://www.w3.org/2000/svg" xmlns:xlink="http://www.w3.org/1999/xlink"><path clip-rule="evenodd" d="M31.949,431.711c0,20.078,16.264,36.34,36.34,36.34h363.421  c20.078,0,36.34-16.262,36.34-36.34V213.658c0-20.079-16.262-36.341-36.34-36.341h-27.259V68.29c0-20.077-16.262-36.34-36.34-36.34  H131.889c-20.079,0-36.34,16.264-36.34,36.34v109.027H68.29c-20.077,0-36.34,16.262-36.34,36.341V431.711z M359.026,97.367v105.388  c0,11.084-8.907,19.989-19.992,19.989H160.963c-11.086,0-19.989-8.905-19.989-19.989V97.367c0-11.086,8.902-19.991,19.989-19.991  h178.071C350.119,77.375,359.026,86.28,359.026,97.367z M386.284,422.624H113.718c-9.995,0-18.17-8.18-18.17-18.172  c0-9.987,8.175-18.168,18.17-18.168h272.566c9.986,0,18.168,8.181,18.168,18.168C404.452,414.444,396.271,422.624,386.284,422.624z   M95.548,327.228c0-12.539,10.174-22.715,22.713-22.715c12.536,0,22.713,10.176,22.713,22.715c0,12.537-10.177,22.711-22.713,22.711  C105.723,349.938,95.548,339.765,95.548,327.228z" fill="#010101" fill-rule="evenodd"/></svg>